<svg xmlns="http://www.w3.org/2000/svg" viewBox="0 0 1400 420" width="1400" height="420" role="img" aria-label="Lunar Systems  The city runs on this">
  <defs>
    <linearGradient id="sky" x1="0" y1="0" x2="1" y2="1">
      <stop offset="0%" stop-color="#05070a"/>
      <stop offset="55%" stop-color="#071018"/>
      <stop offset="100%" stop-color="#0a121c"/>
    </linearGradient>
    <radialGradient id="blueGlow" cx="78%" cy="22%" r="42%">
      <stop offset="0%" stop-color="#4a90d9" stop-opacity=".42"/>
      <stop offset="100%" stop-color="#4a90d9" stop-opacity="0"/>
    </radialGradient>
    <radialGradient id="amberGlow" cx="12%" cy="88%" r="38%">
      <stop offset="0%" stop-color="#ffb020" stop-opacity=".18"/>
      <stop offset="100%" stop-color="#ffb020" stop-opacity="0"/>
    </radialGradient>
    <radialGradient id="moonFill" cx="38%" cy="32%" r="68%">
      <stop offset="0%" stop-color="#8eb8e8"/>
      <stop offset="55%" stop-color="#4a90d9"/>
      <stop offset="100%" stop-color="#1a3a5c"/>
    </radialGradient>
    <linearGradient id="aurora" x1="0" y1="0" x2="1" y2="0">
      <stop offset="0%" stop-color="#4a90d9" stop-opacity="0"/>
      <stop offset="40%" stop-color="#4a90d9" stop-opacity=".28"/>
      <stop offset="70%" stop-color="#ffb020" stop-opacity=".12"/>
      <stop offset="100%" stop-color="#ffb020" stop-opacity="0"/>
    </linearGradient>
    <clipPath id="frame">
      <rect width="1400" height="420" rx="10"/>
    </clipPath>
  </defs>

  <g clip-path="url(#frame)">
    <rect width="1400" height="420" fill="url(#sky)"/>
    <rect width="1400" height="420" fill="url(#blueGlow)"/>
    <rect width="1400" height="420" fill="url(#amberGlow)"/>
    <rect x="280" y="-40" width="980" height="220" fill="url(#aurora)" opacity=".9"/>

    <g opacity=".18" stroke="#4a90d9" stroke-width="1">
      <path d="M0 56h1400M0 112h1400M0 168h1400M0 224h1400M0 280h1400M0 336h1400M0 392h1400"/>
      <path d="M56 0v420M112 0v420M168 0v420M224 0v420M280 0v420M336 0v420M392 0v420M448 0v420M504 0v420M560 0v420M616 0v420M672 0v420M728 0v420M784 0v420M840 0v420M896 0v420M952 0v420M1008 0v420M1064 0v420M1120 0v420M1176 0v420M1232 0v420M1288 0v420M1344 0v420"/>
    </g>

    <g fill="#e8eef6" opacity=".55">
      <circle cx="90" cy="72" r="1.4"/>
      <circle cx="160" cy="48" r="1"/>
      <circle cx="240" cy="96" r="1.2"/>
      <circle cx="320" cy="40" r="1"/>
      <circle cx="410" cy="80" r="1.3"/>
      <circle cx="520" cy="36" r="1"/>
      <circle cx="610" cy="108" r="1.1"/>
      <circle cx="700" cy="52" r="1.4"/>
      <circle cx="790" cy="88" r="1"/>
    </g>

    <rect x="0" y="0" width="1400" height="420" fill="none" stroke="rgba(74,144,217,.45)" stroke-width="2"/>

    <text x="48" y="42" fill="#6aa6e3" font-family="Consolas, 'Courier New', monospace" font-size="13" letter-spacing="4">LS-LAB  ·  UK DESK  ·  QBCORE / OX</text>
    <text x="1180" y="42" fill="#ffb020" font-family="Consolas, 'Courier New', monospace" font-size="13" letter-spacing="4">Ï LIVE</text>

    <text x="48" y="118" fill="#6aa6e3" font-family="Segoe UI, Helvetica, Arial, sans-serif" font-size="15" letter-spacing="6" font-weight="700">LUNAR SYSTEMS</text>
    <text x="46" y="198" fill="none" stroke="#6aa6e3" stroke-opacity=".45" stroke-width="1.4" font-family="Segoe UI, Helvetica, Arial, sans-serif" font-size="72" font-weight="800" letter-spacing="6">THE CITY</text>
    <text x="46" y="268" fill="#e8eef6" font-family="Segoe UI, Helvetica, Arial, sans-serif" font-size="58" font-weight="800" letter-spacing="4">RUNS ON THIS</text>
    <rect x="48" y="286" width="72" height="3" fill="#ffb020"/>
    <text x="48" y="328" fill="#8593a3" font-family="Segoe UI, Helvetica, Arial, sans-serif" font-size="16">Jobs. Crime. Dispatch. The ugly glue in between.</text>
    <text x="48" y="354" fill="#8593a3" font-family="Segoe UI, Helvetica, Arial, sans-serif" font-size="16">Built on a live box. Source in your folder. Discord if it breaks.</text>

    <g transform="translate(1120,210)">
      <circle r="86" fill="#4a90d9" opacity=".12"/>
      <circle r="72" fill="none" stroke="#4a90d9" stroke-opacity=".28" stroke-width="1"/>
      <circle r="58" fill="none" stroke="#6aa6e3" stroke-opacity=".35" stroke-width="1" stroke-dasharray="4 8"/>
      <circle r="38" fill="url(#moonFill)"/>
      <circle cx="-10" cy="-8" r="34" fill="#071018" opacity=".35"/>
      <circle cx="48" cy="-28" r="6" fill="#ffb020"/>
      <circle cx="48" cy="-28" r="11" fill="none" stroke="#ffb020" stroke-opacity=".45"/>
    </g>

    <g fill="#4a90d9" opacity=".35" transform="translate(0,372)">
      <rect x="48" y="18" width="8" height="30"/>
      <rect x="62" y="8" width="10" height="40"/>
      <rect x="78" y="22" width="7" height="26"/>
      <rect x="92" y="4" width="14" height="44"/>
      <rect x="112" y="16" width="9" height="32"/>
      <rect x="128" y="10" width="11" height="38"/>
      <rect x="146" y="24" width="6" height="24"/>
      <rect x="160" y="6" width="16" height="42"/>
      <rect x="182" y="18" width="8" height="30"/>
      <rect x="196" y="12" width="12" height="36"/>
    </g>
  </g>
</svg>
